<?xml version="1.0" encoding="utf-8"?>
<!-- Generator: Adobe Illustrator 22.1.0, SVG Export Plug-In . SVG Version: 6.00 Build 0)  -->
<svg version="1.1" id="Layer_1" xmlns="http://www.w3.org/2000/svg" xmlns:xlink="http://www.w3.org/1999/xlink" x="0px" y="0px"
	 viewBox="0 0 7725.6 2859.1" style="enable-background:new 0 0 7725.6 2859.1;" xml:space="preserve">
<style type="text/css">
	.st0{fill:#A9A9F7;}
</style>
<path class="st0" d="M4946,160.7c218.7,52.1,437.6,103.3,656,156.6c68.3,16.7,135,39.8,203,58.1c138.3,37.3,279.1,66.8,414.9,111.4
	c216.8,71.3,436.4,137.5,634.5,256.3c113.3,67.9,230,130.2,341.6,200.6c112.1,70.7,202.4,167.2,293.5,262.6
	c191.4,200.6,273.7,432.2,220,701.6c-52.5,263.5-471.3,417.4-691.7,501.5c-191.4,73-383.6,145.2-579.5,204.3
	c-144.5,43.6-295.1,67.6-443.6,96.7c-111.4,21.8-223.4,41-336,55.7c-160.8,20.9-322,39.5-483.5,53.9
	c-169.5,15.1-339.4,29.9-509.4,34.4c-243.2,6.4-486.7,5.2-730,3.8c-162.1-1-324.5-3.5-486.3-13.5c-272.4-16.8-544.9-35.8-816.6-62.1
	c-199.1-19.3-397.2-49.7-595.1-79.5c-133.5-20.1-267.2-42.1-398.3-73.4c-210.1-50.2-421-97.7-624.3-174.2
	c-154.9-58.3-305.6-122.7-445.4-212.2c-121.1-77.5-236.4-163-327.5-274c-215.6-262.7-294-559.9-208.1-894.1
	c21.5-83.7,75.4-147.3,127.3-212.9c143.5-181.5,340.6-286.5,541-389.9c237.6-122.5,488.7-204.8,745.5-273
	c296.2-78.6,597.9-128.3,902-161.2c147.8-16,297-20.5,445.7-27.3C2925.2,4.8,3054.9,0.1,3184.5,0c205.5-0.1,411,4.8,616.5,6.2
	c244.2,1.7,485.4,35.3,726.2,69.3c140.8,19.9,279.7,53.7,419.4,81.3C4946.5,158,4946.2,159.4,4946,160.7z M4398.1,174.8
	c0.6-5.2,1.1-10.3,1.7-15.5c-119.2-15.3-238.1-34.9-357.7-44.9c-134-11.2-268.7-14.8-403.2-19.7c-118.7-4.3-237.5-9.4-356.2-7.8
	c-161.9,2.2-323.7,9-485.5,16.4c-161.7,7.4-323.5,15.6-485,27.8C2036.9,152,1767.1,207.7,1499,271
	c-248.1,58.6-489.9,137.4-720.4,247.3c-151.5,72.2-303,144.8-434.1,252.6c-86.4,71-170.8,145.5-216.8,249
	c-88,197.7-80.5,402-11.8,601.9c89.8,261.3,282,438.4,509.6,580.5c251.5,156.9,532.7,238.5,817.1,307.3
	c395.5,95.8,795.8,164.8,1202.4,192.7c237.3,16.3,474.3,40.3,711.8,50c259.1,10.6,518.7,11.1,778.2,11.8
	c489.9,1.2,977.6-29.7,1461.9-107.9c318-51.4,633.1-111.6,940.2-212.9c229.4-75.7,455.9-156.7,668.3-272.6
	c152.5-83.2,258.5-149.6,326-313.6c56.6-137.5,45.2-293-26.4-422.8c-91.6-166-222.4-306.8-372.5-421.7
	c-160.1-122.4-332.1-223.1-516.6-303.5C6224,538.7,5756.6,428.5,5334.4,367.2c-232.8-33.8-467.9-52.4-701.3-82.8
	c-419.4-54.6-840.9-72-1263.1-74.1c-210.7-1.1-422.2,0.8-632,17.7c-258.1,20.8-514.8,58.7-772.1,89.1c-26.1,3.1-52.2,5.5-94.9,9.9
	c21.5-12,27.2-17,33.8-18.6c109.4-26.8,217.9-59.1,328.7-78.1c124.2-21.4,252-23.3,375.6-47c185.9-35.6,373.8-31.4,560.8-41.8
	c142-7.8,284.7-3.9,427.1-1.8c152.9,2.2,305.9,6.8,458.7,13.3C4169.9,157.8,4284,167.4,4398.1,174.8z"/>
</svg>
