<?xml version="1.0" encoding="utf-8"?>
<!-- Generator: Adobe Illustrator 22.1.0, SVG Export Plug-In . SVG Version: 6.00 Build 0)  -->
<svg version="1.1" id="Layer_1" xmlns="http://www.w3.org/2000/svg" xmlns:xlink="http://www.w3.org/1999/xlink" x="0px" y="0px"
	 viewBox="0 0 841.9 595.3" style="enable-background:new 0 0 841.9 595.3;" xml:space="preserve">
<style type="text/css">
	.st0{fill:#A9A9F7;}
</style>
<g>
	<path class="st0" d="M-228.8,211.5c-35.9,59-65.1,116-103.2,166.2c-21.4,28.2-55.9,48-87.4,66.8c-61.2,36.6-117.1,22.5-164.6-27.1
		c-51.9-54.2-102.1-110-162.1-174.8c-19.1,46.3-39.7,88.6-54,132.8c-16.5,51-49,83.1-96.8,104c-73.1,31.9-92.1,23.6-153-30.3
		c-72.2-63.9-118.2-140.6-146.1-231.1c-9-29.3-24.4-56.6-54.4-83.3c-10.1,40.8-21.8,81.4-30.1,122.6
		c-18.8,93.1-36.6,186.4-53.4,279.9c-8.6,48-36.5,76.6-88.9,94.5c-48.2-52.5-101-105-147-162.8c-14-17.6-12.1-49.8-13-75.5
		c-1.7-49.2,2.2-98.6-0.8-147.7c-3.2-52.9,8.7-96.4,67.5-131.3c17.5,41.4,34.4,81.5,57.4,136.1c15.8-41.6,28.4-74.7,40.8-107.9
		c28.3-75.6,65.9-135.9,163.5-118c35.2,6.5,76.1-6.4,107.6,6.2c46.7,18.8,71.9,64.4,91.2,111.2c21.8,52.6,45.9,104.2,72.6,164.3
		c22.5-42.2,42.3-76.5,59.5-112.1c23.8-49.4,57.1-78.5,116.3-68.1c19.6,3.4,42.2,5,60.3-1.4c66.9-23.6,110.2,5.7,148,56.8
		c30.7,41.4,64.3,80.7,104.6,130.9c25.9-39.8,48.3-74.7,71.1-109.3c19.1-29,38.8-57.6,58-86.6c19.5-29.3,45.5-40.4,81.4-37.6
		c37.2,2.9,75.4,3.1,112.3-1.7c70-9,91.9-1.3,127,57.5c23.4,39.3,46,79.1,76.4,131.6c40.8-42.2,78.2-73.4,106.1-111.6
		c31-42.6,63.6-59.7,117.5-50.5c34.9,5.9,75-0.5,109-12.4c60.9-21.2,104.4-21.5,151,37.2c78.9,99.4,84.2,95.1,185.1,11.7
		c33.4-27.6,67.6-54.4,102-80.8C847.8,25,895.9,4.4,955.8,19.1c24.1,5.9,52.1,3.6,76.8-1.8c87.2-19.3,168.6-8.3,237,49.9
		c74.1,63.1,146.4,54.4,222.8,8.6c37.2-22.3,74.4-45.3,113.7-63.3c33.8-15.5,70.3-33.4,106.2-34.8c95-3.7,190.4,3.1,285.6,1.7
		c89.3-1.3,178.6-6.9,267.8-12.1c50.7-3,101.3-8.9,157.9,1.5c-14.1,12.5-26.3,28.6-42.5,36.9c-169.6,86.9-344.2,155-540.4,122.2
		c-56.3-9.4-98.6,8.6-143.9,40C1518.3,291.7,1323.9,333.7,1125,230c-117.6-61.3-209.6-54.3-299.8,37.8c-55.8,56.9-132.6,69.2-204,89
		c-53.4,14.8-109.7,5.6-159.3-24.6c-44.3-27-88.2-54.7-134.5-83.6c-42.5,34.1-83.3,70-127.3,101.5c-96.6,69.2-194,67.4-286.9-7.5
		C-136.1,303.1-180.1,257-228.8,211.5z"/>
</g>
</svg>
