<?xml version="1.0" encoding="utf-8"?>
<!-- Generator: Adobe Illustrator 22.1.0, SVG Export Plug-In . SVG Version: 6.00 Build 0)  -->
<svg version="1.1" id="Layer_1" xmlns="http://www.w3.org/2000/svg" xmlns:xlink="http://www.w3.org/1999/xlink" x="0px" y="0px"
	 viewBox="0 0 244 7" style="enable-background:new 0 0 244 7;" xml:space="preserve">
<style type="text/css">
	.st0{fill:#4947FE;}
</style>
<title>Combined Shape</title>
<desc>Created with Sketch.</desc>
<path class="st0" d="M230.6,8.5c-5,0-8.9-0.1-12.8-0.1c-10.8-0.1-21.6-0.1-32.4-0.2c-18.8-0.2-37.6-0.5-56.5-0.7
	c-21.1-0.1-42.1,0-63.2-0.2c-12-0.1-24-0.5-36-0.9C27,6.3,24.3,6,21.7,5.6c-2.7-0.4-5-1.7-7.7-4.1C16,1,17.1,0.5,18.3,0.4
	C26.4,0,34.5-0.3,42.7-0.5c6.2-0.2,12.4-0.4,18.6-0.4C71-1,80.8-1,90.5-0.9c6.6,0,13.2,0.1,19.8,0.2c8.3,0.1,16.7,0.4,25,0.5
	c8.5,0.1,17-0.1,25.5,0c6.2,0.1,12.4,0.5,18.5,0.5c7.4,0,14.7-0.4,22.1-0.4c5.3-0.1,10.6-0.1,15.8,0.2C222.8,0.3,226.4,4,230.6,8.5z
	"/>
</svg>
