<?xml version="1.0" encoding="UTF-8"?>
<svg width="244px" height="7px" viewBox="0 0 244 7" version="1.1" xmlns="http://www.w3.org/2000/svg" xmlns:xlink="http://www.w3.org/1999/xlink">
    <!-- Generator: Sketch 51.1 (57501) - http://www.bohemiancoding.com/sketch -->
    <title>Combined Shape</title>
    <desc>Created with Sketch.</desc>
    <defs></defs>
    <g id="Page-1" stroke="none" stroke-width="1" fill="none" fill-rule="evenodd">
        <g id="Landing-page" transform="translate(-328.000000, -273.000000)" fill="#4947FE">
            <path d="M390.45867,274.45815 C390.475295,274.340802 390.34408,274.24039 389.90159,274.205575 C390.190535,274.277252 390.351392,274.366849 390.458629,274.458437 C391.051734,274.978815 389.286855,275.790027 389.983805,276.396217 C390.467367,276.776506 392.552542,277.475361 392.701483,277.528123 C393.171144,276.958686 393.056956,274.595321 392.367855,273.825784 C392.445304,273.429567 393.285332,274.255849 393.711303,274.303634 C394.942549,274.952713 395.602855,273.820806 396.629555,274.081633 L395.842153,274.432056 C396.010953,274.597312 397.527173,274.40219 397.769451,274.173221 C397.805196,274.397213 396.975098,275.315082 397.442773,275.584868 C399.289642,275.720259 401.05509,274.504729 400.945867,273.835739 L398.106057,274.502738 C398.011728,273.945246 400.122719,273.963166 400.012503,273.292185 L402.619964,273.514186 C402.290308,273.530114 401.282474,273.679443 401.674685,273.990045 C402.795715,273.97113 402.254562,274.092583 403.00026,274.359383 C401.709438,275.05326 399.339289,276.847188 398.493304,277.702339 L399.84271,277.341961 L400.176338,277.672474 C401.935828,277.247387 403.54042,275.077153 404.008095,274.507715 C405.014936,274.659034 404.65152,275.84669 404.409243,276.07566 C406.392145,276.15331 406.383208,274.410154 408.381997,274.597312 L407.63332,274.330513 C408.10596,274.223992 409.818782,274.479841 409.637074,274.258835 C410.030278,274.578397 410.387737,275.329019 409.942899,275.527128 L411.724234,274.424092 C411.463091,274.539572 411.62494,275.496267 411.511745,275.666501 C412.223683,275.709308 412.734055,274.574415 412.285246,274.413141 C413.667419,275.116974 413.325847,274.736685 414.444891,275.556994 C414.856961,275.49328 414.417089,274.541563 414.117221,274.436038 C415.047606,274.188153 415.591737,274.313589 416.03161,274.421105 C414.493545,274.818318 415.593723,276.560478 415.295841,277.284221 L418.621198,274.465903 C418.508003,274.636137 418.238916,275.545047 418.256789,275.65555 C418.539777,274.810353 422.320894,274.734694 424.168756,274.869089 L423.891726,274.874067 C423.514408,275.161772 425.10212,275.412643 425.756468,275.120956 C425.644265,275.290194 425.494331,275.238427 425.216308,275.243405 C426.445568,275.892484 426.830829,273.974116 428.081934,274.736685 C426.942038,274.645097 426.714655,274.985565 426.77026,275.321055 C427.707595,275.023395 429.871212,275.375809 429.426375,274.375311 C430.025118,274.589348 430.566271,274.467894 430.509673,274.971628 L432.812302,274.399204 C432.640523,274.499751 432.490589,274.792434 433.161817,274.868094 C431.874966,274.722748 430.619889,275.641613 429.946676,274.983574 C429.907951,275.599801 430.389527,275.9333 429.767947,276.447984 C432.256255,276.178198 433.627506,275.138875 435.200323,274.439024 L437.385785,274.903932 L437.481107,274.6222 L437.854453,275.334993 C438.129497,275.175709 438.305248,275.036336 438.361845,275.104032 C438.411492,275.167745 438.340994,275.261324 438.23177,275.365854 C438.463125,275.332006 438.672636,275.271279 438.781859,275.198606 C438.865266,275.571926 438.474048,275.996018 438.058006,276.379293 C437.859418,276.247885 437.657851,276.113489 437.45827,275.982081 C437.026341,276.332504 436.712571,276.69786 437.309329,276.938776 C437.393729,276.891986 437.502952,276.840219 437.61714,276.788452 C437.341103,277.052265 437.170317,277.269288 437.370891,277.375809 L439.046974,277.049278 C438.857323,276.950722 438.575328,276.74664 438.245671,276.512693 C439.298188,276.05774 440.500639,275.503235 439.568268,275.016426 L440.839232,275.446491 C442.342543,274.756595 442.080407,274.896964 443.90841,274.391239 C444.005718,274.638128 443.519178,274.843206 443.844862,275.027377 C445.180367,274.243902 447.078869,275.988054 447.374765,275.288203 C448.450119,275.124938 447.827546,274.67994 448.512675,274.489796 C448.478915,274.568442 448.413381,274.723743 448.611969,274.73768 L449.42618,274.236934 C449.752857,274.422101 448.677503,274.582379 449.589022,274.810353 C451.155882,274.444002 452.074352,274.192135 453.379075,274.447984 C455.238853,274.34445 452.591674,273.428571 454.161512,273.543056 C454.387903,273.961175 454.587484,274.456944 455.567516,274.528621 C456.087817,274.246889 456.02129,273.921354 456.903021,273.747138 L456.841458,274.38228 C457.655669,274.363365 458.307038,274.250871 458.309024,274.731707 C458.977273,274.464908 459.435019,274.518666 459.782548,274.623196 C461.020744,274.297661 458.885923,273.324042 458.599956,273.07118 C459.81035,273.55998 460.651371,273.290194 461.336499,274.063713 L460.261145,274.224988 C462.546894,275.034345 462.443628,273.342957 463.493166,274.702837 C462.70775,274.646093 461.762471,274.976605 462.222202,275.33101 L463.363091,275.014435 C463.495152,275.184669 462.711722,275.126929 463.232022,275.325037 C463.557707,275.188651 464.224963,274.868094 464.519866,274.658039 L464.503979,274.69786 L466.560359,274.609258 C466.170133,274.578397 466.072825,274.81334 466.464043,274.843206 L467.814442,274.521653 C467.400386,274.677949 467.8204,274.878049 468.424108,274.987556 C470.156789,275.19562 469.826139,273.567944 471.166609,274.226979 C470.971,274.212046 470.938233,274.290692 470.739645,274.276755 L471.429738,274.567446 C471.587616,273.217521 475.50973,274.467894 475.671579,273.116974 C476.652604,273.671478 475.737113,273.443504 474.464164,274.070682 L475.50973,274.467894 C475.083759,274.515679 474.727293,274.409159 474.269547,274.536585 C475.642784,275.118965 476.946515,274.412145 477.695192,274.067695 C478.219464,274.266799 477.272199,275.078148 478.774518,274.869089 C480.895438,274.624191 478.382306,273.878547 479.656249,273.73121 L480.57174,274.44002 C482.201155,273.919363 483.411549,274.410154 484.781807,274.510702 C485.091561,274.457947 485.244474,274.386282 485.320942,274.311629 C485.34828,274.283823 485.362181,274.253957 485.370124,274.226083 L485.273809,274.305724 L485.320942,274.311631 C486.777617,274.628173 488.385188,273.656546 489.48338,273.89547 C489.224222,274.03783 490.107939,274.341463 490.238014,274.512693 L492.226874,274.097561 C491.347129,274.273768 491.381882,274.676954 491.218046,275.066202 C491.838634,275.030363 492.132545,274.812344 492.554544,274.764559 C492.29638,274.903932 492.034243,275.046292 492.360921,275.229467 L494.450067,274.583375 C494.327936,274.513688 494.088637,274.485814 493.888063,274.465903 C494.408364,274.465903 495.537337,274.223992 496.279063,274.558487 C496.211544,274.711797 495.954372,274.855152 495.888838,275.010453 C495.267257,274.562469 494.908806,274.936784 494.581135,275.234445 C496.018913,275.178696 494.938594,275.33997 495.627695,275.631658 C496.641487,275.625684 497.062493,275.097063 496.799364,274.7556 C497.943231,274.918865 498.305655,275.028372 499.478317,274.633151 L499.251927,275.1777 L500.327281,275.015431 L499.450515,275.673469 C501.506894,276.064709 499.837762,274.740667 502.12351,275.070184 L502.125496,275.550025 C503.007227,275.373818 503.317025,274.566451 503.995203,275.14883 C504.853103,274.867098 502.539552,274.456944 504.549264,274.377302 C504.900765,274.628173 505.661357,274.817322 506.237262,274.918865 C506.881681,274.705824 505.7537,274.345445 505.343616,274.409159 C508.377049,274.210055 507.209351,276.067695 509.922064,275.460428 C508.997636,275.107018 510.705494,274.538576 508.510103,274.533599 C509.560634,274.25784 510.566482,275.247387 511.663681,274.734694 L510.946778,275.340966 C511.33899,275.356894 511.78482,275.13788 511.999295,275.065207 L511.904966,275.536088 C513.262315,274.719761 514.414126,275.953211 515.226351,274.875062 C514.660375,275.724241 516.233193,274.834246 516.766402,275.172723 C515.650337,275.763066 513.581049,275.126929 513.42615,275.914385 C513.941487,276.157292 514.407176,275.776008 514.904639,276.012942 C514.554131,276.126431 514.044752,276.330513 513.909712,276.487805 C515.613598,276.950722 516.594623,276.03783 517.633239,275.841712 L515.802257,276.006969 C515.957155,275.220508 516.62739,275.879542 517.145705,275.267297 C518.057224,275.698357 518.778099,275.092086 519.521811,275.359881 C519.324216,275.352912 519.310315,275.430562 519.111727,275.423594 C521.105551,275.422598 521.64869,276.711797 522.441056,276.741663 C523.218528,276.852165 524.698009,276.436038 524.165793,276.097561 C524.80624,275.88452 521.515636,276.308611 522.664468,275.297163 C523.791455,276.487805 525.009793,274.877053 527.483207,275.707317 C526.392959,276.11548 528.114717,276.377302 527.142629,276.685913 C528.326213,276.601294 528.371889,276.425087 528.900133,276.096565 L529.25362,276.46889 C530.805586,275.656546 529.622994,275.739174 531.96534,275.32006 C531.177938,275.600796 532.898704,275.862618 532.297975,276.117471 C532.946365,276.149328 533.579861,276.042807 534.055479,275.824788 L533.969094,275.877551 C536.338249,275.709308 535.903341,276.361374 538.062987,275.969139 L537.850497,275.744151 C540.679384,275.170732 544.245033,275.591837 547.169243,275.342957 L546.142542,275.151817 C546.454326,275.267297 548.115515,274.817322 549.022069,275.172723 C548.839368,275.192633 548.524606,275.288203 548.354813,275.257342 C548.378644,275.508213 548.729152,275.879542 549.431161,275.949228 L549.705212,275.571926 L549.986214,275.868591 C551.056604,275.885515 549.676417,275.321055 550.7478,275.336984 C551.361437,276.433051 555.356036,275.525137 556.270534,276.492782 C557.00531,275.711299 554.244936,276.360378 555.05021,275.653559 C555.375895,275.774017 555.520864,275.923345 556.215922,275.992036 L555.980595,275.519164 C559.217581,275.81782 560.44982,276.231956 563.335305,276.158288 L563.218138,276.258835 C564.236894,276.449975 564.816772,276.375311 565.218912,275.961175 C565.421472,276.181185 564.733365,276.298656 565.107703,276.490791 C565.960639,275.881533 566.595128,276.036834 567.175998,276.092583 C567.739988,276.192135 568.448947,275.941264 568.244402,275.316078 C568.588952,275.658537 569.114217,275.499253 569.509408,275.168741 C569.927436,274.889995 570.309718,274.463912 570.702922,275.234445 C570.681077,274.885017 570.595684,274.541563 570.464616,274.22897 C570.85087,274.394226 571.01967,275.255351 570.798244,276.09557 C570.613557,276.94674 570.08432,277.659532 570.061483,278.118467 C569.088401,278.779492 567.853183,278.988552 566.919819,278.907914 C567.054859,279.125933 566.623923,279.55102 567.113443,279.555002 C566.381646,279.685416 565.762051,279.752115 566.748041,280 C565.813684,279.915381 565.034226,279.745147 564.339167,279.627675 C563.638151,279.508213 562.93515,279.427576 562.230162,279.374813 C560.82118,279.267297 559.409218,279.271279 557.99825,279.299154 C555.176314,279.353907 552.3653,279.503235 549.618826,279.051269 C549.246474,279.103036 549.45797,279.327028 549.599961,279.475361 C548.592126,278.859134 548.626879,279.783972 548.071825,279.864609 L546.597309,278.97561 C545.992608,279.230463 546.461276,279.503235 546.415601,279.678447 C543.606573,279.825784 540.878965,278.947735 538.603146,279.443504 C537.881279,279.122947 538.781875,278.739671 537.828653,278.623196 C539.116496,279.539074 535.043455,279.021404 535.863624,279.666501 C534.94714,278.69786 532.42805,279.429567 532.857993,278.099552 C531.715119,278.009955 531.906756,278.658039 532.23542,278.780488 C530.909844,278.71777 529.839455,278.700846 528.751192,279.109009 C528.027338,278.791439 522.688298,279.385764 521.51365,278.370333 C522.31396,279.029368 521.448116,278.707815 520.671636,278.983574 L521.364709,279.564958 L519.618127,279.486312 C519.261661,279.538079 519.162367,279.514186 519.164353,279.462419 C518.868457,279.431558 519.23783,279.130911 518.487167,278.977601 C517.297625,278.931807 517.237056,279.246391 516.580722,279.538079 L516.761437,279.624689 L515.954177,279.671478 C515.360398,279.647586 518.05921,279.118965 516.124962,278.806371 C516.095174,278.964659 514.949321,279.712295 514.432992,279.295172 C515.421961,279.333997 515.300822,278.932802 514.938399,278.759582 L513.552254,278.704828 L514.004042,279.436536 C510.029302,279.360876 505.896684,278.80438 501.652857,278.810353 C501.717398,278.173221 498.648219,278.749627 499.039438,277.815829 L499.20228,277.907417 C500.244867,277.824788 498.906384,277.165754 498.05742,277.263315 C498.942129,277.56894 496.457793,278.187158 498.613466,278.346441 L496.942348,278.773519 C496.000047,280.562469 492.495961,278.582379 489.964956,279.13788 C490.143685,279.069189 490.191346,278.974614 490.214184,278.918865 C487.963188,279.47337 485.183948,278.387257 484.660668,278.66899 L484.466052,278.174216 C482.539748,278.913888 482.311371,278.97561 480.02463,278.648084 C480.055411,278.568442 480.321519,278.430065 479.960089,278.322549 C479.406028,278.682927 478.847995,279.04231 477.283121,278.926829 L477.348656,278.771528 L474.896093,278.831259 C474.927867,277.310105 470.688012,279.72225 469.966144,278.065704 C469.482582,278.50672 467.688339,278.630164 466.889022,278.83325 C466.609379,278.905741 466.450779,278.986339 466.507336,279.092782 C466.779401,279.017123 466.896568,278.929517 466.889618,278.832952 C466.883986,278.768442 466.835307,278.699799 466.703342,278.628173 C465.754091,279.438527 463.988643,278.347437 462.945063,278.430065 C462.262913,278.619214 462.554837,278.882031 462.848748,279.143853 C461.510264,278.484818 459.130186,279.831757 458.641659,279.554007 C457.656662,279.481334 458.279236,278.96665 458.012135,278.627178 C456.547548,278.758586 458.246469,280.005973 456.286405,279.381782 C456.515774,279.318069 456.937774,279.267297 456.774931,279.1777 C456.026254,279.04231 454.700679,277.281234 453.950016,277.625684 L454.441522,277.902439 C453.069278,278.282728 451.215458,276.633151 450.986089,277.657541 L451.110207,278.137382 C448.757931,277.48233 450.10833,278.314584 447.72428,277.738178 L447.754068,277.660528 C446.711481,277.743156 446.152455,277.141862 445.635133,277.90443 L445.992592,278.011946 C444.698791,278.060727 444.58361,278.001991 443.266971,277.95122 C443.112072,278.022897 442.474604,278.131409 442.291903,277.969139 C442.226369,278.604281 439.232654,278.233947 438.645826,278.190144 C439.689407,278.106521 439.197901,277.830762 438.904984,277.567944 C438.285389,278.083624 437.86041,278.132404 437.013432,277.748133 C436.88435,278.541563 436.706614,279.385764 435.027552,279.416625 C435.288695,279.299154 435.696793,279.235441 435.530972,279.070184 C435.362173,278.904928 434.969961,279.081135 434.8379,279.139871 C434.672079,278.97561 435.212239,278.852165 435.026559,278.575411 C433.88567,279.323046 433.066494,278.610254 431.421192,278.865107 C431.944472,278.632155 431.496656,278.472872 431.311969,278.196117 C431.176929,279.095072 429.06991,277.394724 429.68454,278.560478 C426.471385,277.834744 421.51264,278.435042 420.265507,277.674465 C419.929894,277.344948 419.029297,277.864609 418.468285,277.874564 L418.548713,277.481334 C416.972917,278.18218 417.325411,277.735192 415.473577,278.439024 C416.242113,277.978099 415.925365,277.759084 415.158815,277.379791 L413.884873,278.187158 L413.644581,277.575908 C413.122294,277.809856 412.54341,277.708313 411.964526,277.60677 C412.245528,277.602787 412.092615,277.548034 412.075735,277.438527 C411.790761,278.281732 409.526857,278.161274 409.172378,278.560478 C408.614345,277.730214 407.655165,278.7556 407.247066,277.978099 C407.059401,278.091588 406.819109,278.185167 406.556973,278.260826 C406.82606,278.624191 406.921382,279.028372 406.412996,278.847188 C406.368314,278.85117 406.334554,278.855152 406.292851,278.859134 L406.075397,278.378298 C405.554103,278.484818 405.02288,278.53559 404.673365,278.541563 C404.83025,278.58437 405.011958,278.675958 405.200616,278.785465 C404.978198,278.711797 404.772659,278.621205 404.573078,278.542558 C404.501586,278.542558 404.433073,278.540567 404.386405,278.534594 C404.419172,278.520657 404.456904,278.513688 404.4996,278.512693 C404.181859,278.397213 403.854189,278.339472 403.39843,278.49776 C401.584327,277.746142 399.340282,279.467397 397.341493,278.44002 C397.643347,278.546541 398.068326,278.595321 398.1845,278.425087 C396.503452,278.454953 394.840277,277.756098 393.774852,278.112494 L393.846343,278.560478 C392.612118,278.750622 391.658896,278.886013 390.666948,278.848183 L390.607372,279.351916 C389.166615,279.153808 386.063677,279.938278 385.188896,278.890991 C384.833424,279.290194 383.195072,278.752613 382.37391,278.88004 L382.169365,278.490791 C381.101954,278.354405 380.440656,278.485814 379.800209,278.59333 C377.639571,277.767048 375.622909,278.54455 373.726393,278.470881 L373.710506,278.358387 L371.784202,278.618218 C372.291594,278.271777 371.403905,278.855152 370.826014,278.753609 C370.212377,278.935789 369.22043,278.827277 368.500548,278.569438 L367.275259,278.538576 C368.639559,278.289696 367.182916,277.98009 367.110431,277.532106 L366.324022,277.882529 C366.010253,277.665505 366.831415,277.537083 366.254517,277.436536 C365.727265,277.670483 364.178278,277.642608 363.690745,278.099552 C363.765215,278.213041 363.952881,278.319562 364.184236,278.410154 C364.250763,278.383275 364.246791,278.389248 364.204095,278.419114 L364.257714,278.443006 C364.231897,278.437033 364.220975,278.435042 364.19218,278.428074 C364.125653,278.470881 364.021394,278.54455 363.976711,278.60229 C363.002637,278.494774 363.359103,278.681931 363.390877,278.884022 C362.291692,278.175212 361.668125,278.641115 360.829091,277.813838 C361.969979,278.747636 358.293121,277.798905 359.001087,278.682927 C358.181912,277.970134 358.436104,278.643106 357.913818,278.035839 C359.072579,278.238925 360.233326,277.602787 361.170662,277.304131 L360.256164,276.873071 C360.861858,276.078646 362.314529,277.189647 362.862632,276.923843 C362.493259,277.107018 361.666139,276.913888 361.640323,276.734694 L361.880614,277.347934 C363.188317,277.604778 364.235869,277.136884 365.16824,276.841215 C364.292467,276.632155 366.237637,276.485814 365.603148,276.047785 L364.909082,276.11548 C364.593327,275.897461 365.267534,275.718268 365.658752,275.542061 C367.8462,276.005973 371.865623,275.65555 372.646074,276.143355 C372.199251,275.984072 371.37511,276.111498 370.980913,276.285714 L372.007613,276.548532 C371.171557,276.562469 370.51721,276.013937 369.283978,276.205077 C369.48753,276.59333 368.588919,277.113987 369.519305,277.657541 C371.873566,278.285714 371.467454,276.667994 374.308256,276.841215 C374.571385,276.724739 373.707527,277.468392 375.221761,277.274266 C377.129199,276.901941 378.531231,276.035839 378.536196,275.196615 C377.732907,275.434545 376.12633,275.911399 375.885045,275.300149 C376.687341,275.061224 378.070507,274.924838 378.144977,274.531608 C378.967132,275.243405 376.632729,274.72673 377.714041,275.324042 C378.276046,275.312096 378.518323,275.084121 378.781452,274.96665 C378.405128,275.255351 379.281894,275.462419 379.447715,275.627675 C381.268768,275.651568 382.314334,275.969139 384.266455,276.047785 C384.369721,276.152315 384.58221,276.378298 384.523626,276.550523 C385.480821,276.365356 386.850086,275.325037 386.498585,274.882031 C387.617628,274.864111 387.674226,275.197611 388.628442,275.012444 C387.114208,274.367347 388.925331,275.11996 389.094131,274.443006 C390.069198,274.369338 389.43173,274.773519 389.878554,274.933798 C390.040403,274.863116 390.430628,274.641115 390.458431,274.457939 Z M344.453518,278.184072 L344.441603,278.170134 C344.87949,278.195022 345.108859,278.20896 345.206167,278.213937 C345.093965,278.209955 344.831828,278.199004 344.453518,278.184072 L344.798168,278.612145 C344.302691,278.50662 344.172615,278.2667 344.105095,278.174116 C344.227191,278.177102 344.347303,278.181083 344.453524,278.184069 Z M330.584028,274.156994 C330.399341,274.274465 330.204725,274.367048 329.9972,274.457641 C330.232527,274.31329 330.444023,274.153011 330.635661,273.978795 L330.584028,274.156994 Z M331.758279,277.110503 C330.879527,276.90443 329.252098,277.26879 328,277.347437 L328.469661,276.780986 L328.637468,276.944251 C329.665161,277.206073 331.219113,276.394724 331.758279,277.110503 Z M334.823883,278.676655 C334.531959,278.653758 334.36018,278.651767 334.236063,278.654754 C334.195352,278.631857 334.175493,278.613937 334.105987,278.583076 C335.492132,278.444699 334.636218,278.397909 334.823883,278.676655 Z M334.235765,278.654355 C334.630955,278.890294 333.627092,278.669288 334.235765,278.654355 Z M337.045885,278.52215 C337.510581,278.793927 337.678388,278.958188 336.855241,279.085615 C337.121349,278.970134 336.408418,278.926332 336.242596,278.761075 L337.045885,278.52215 Z M337.810449,278.010752 L337.394407,278.111299 C337.465899,278.17999 337.576115,278.204878 337.810449,278.010752 Z M336.512081,278.323743 C336.887412,278.178397 337.063162,277.976307 336.988692,278.186361 C337.269694,277.764261 337.27863,277.995222 337.394804,278.110702 L336.512081,278.323743 Z M336.01422,278.210055 C335.566404,278.051767 334.986527,277.949228 335.792795,277.710304 C334.259695,277.793927 334.48112,278.295669 336.01422,278.210055 Z M332.059835,276.378397 C332.095581,276.602389 331.199949,276.281832 330.939799,276.399303 L331.461092,276.16436 L332.059835,276.378397 Z M342.033425,278.936287 C341.9947,278.711299 341.419788,278.610752 341.116941,278.504231 L341.709726,278.335988 C341.767317,278.53111 342.085058,278.785963 342.033425,278.936287 Z M341.710024,278.336386 L342.597713,278.085515 C341.807332,278.047685 341.66137,278.169139 341.710024,278.336386 Z M337.960284,277.2223 L338.241286,277.218318 L336.500662,277.754903 L337.960284,277.2223 Z M345.414585,278.985864 L345.808782,278.810652 L344.909179,279.332305 L345.414585,278.985864 Z M347.658432,278.945943 C348.342568,279.18885 348.872798,279.225684 349.372247,279.106222 C348.9006,279.325236 348.378314,279.569139 347.768648,279.615928 C348.162845,279.440717 347.284093,279.231658 347.658432,278.945943 Z M350.161138,278.787556 C349.91191,278.854256 349.652752,278.975709 349.37175,279.106122 C349.636865,279.041414 349.897016,278.947835 350.161138,278.787556 Z M344.017319,278.17113 C344.050087,278.172125 344.073917,278.173121 344.104698,278.174116 C344.071931,278.132305 344.052072,278.117372 344.017319,278.17113 Z M340.278303,277.628671 C340.80059,277.396715 341.88786,277.151817 340.8413,276.778497 C340.464976,277.067198 341.064712,277.278248 340.278303,277.628671 Z M343.589759,277.635441 L342.57696,277.923146 C342.836118,277.807666 342.667318,277.642409 342.650438,277.529915 L343.589759,277.635441 Z M344.051278,277.504231 L343.938083,277.674465 L343.589561,277.63564 L344.051278,277.504231 Z M348.553965,278.374316 C347.977066,278.384271 348.2114,278.146341 348.286864,278.013937 C348.816101,278.017919 349.371155,278.067695 349.908335,278.156297 C349.405908,278.181185 348.962063,278.192135 348.553965,278.374316 Z M346.55597,278.237232 C346.584765,278.230264 346.619518,278.220309 346.646328,278.214335 C346.591716,278.177501 346.547034,278.165555 346.55597,278.237232 Z M354.850497,278.205177 L354.752196,278.200199 L354.772055,278.126531 L354.850497,278.205177 Z M348.197598,277.933001 C348.327674,277.913091 348.321716,277.953907 348.286963,278.013639 C347.943406,278.013639 347.622686,278.037531 347.319839,278.078347 C347.552187,277.949925 347.794465,277.847387 348.197598,277.933001 Z M351.541524,278.600896 C351.332013,278.510304 351.093708,278.432653 350.843487,278.360976 C351.048032,278.497362 351.46606,278.711399 351.541524,278.600896 Z M346.781368,278.332504 L346.720798,278.351419 C346.852859,278.444002 346.836972,278.398208 346.781368,278.332504 Z M346.781368,278.332504 C346.745622,278.290692 346.695975,278.244898 346.646328,278.214037 C346.844916,278.15331 347.073292,278.109507 347.319541,278.078646 C347.154713,278.170234 346.989885,278.272773 346.781368,278.332504 Z M356.372874,275.487904 C356.671749,275.592434 356.278544,275.768641 356.29741,275.88213 L357.379715,275.637232 C357.640858,276.361971 355.56462,276.566053 356.068041,277.062817 C355.471284,276.84878 355.696681,276.507317 354.464442,276.700448 C353.67704,277.04888 355.410714,277.353509 355.734413,277.572524 C354.803035,277.79552 354.801049,277.955799 354.772254,278.126033 C353.99081,277.394326 353.411925,276.09119 354.317487,275.80448 C355.230992,276.236536 356.29741,275.88213 356.372874,275.487904 Z M353.001345,278.070085 L352.870276,278.127825 L354.752891,278.200498 C354.707216,278.330911 354.574162,278.476257 353.935701,278.663415 C353.364761,278.34883 353.05397,278.188552 352.61807,278.115879 L353.001345,278.070085 Z M350.901474,278.101145 C351.75441,278.060329 352.234993,278.052364 352.618268,278.116078 L350.80218,278.333101 L350.79523,278.329119 C350.798208,278.305226 350.81211,278.286312 350.818067,278.26441 C350.982895,278.21563 351.424754,278.19771 350.901474,278.104131 C350.864735,278.153907 350.830976,278.204679 350.818067,278.26441 C350.808138,278.266401 350.786293,278.268392 350.780336,278.27337 C350.692957,278.241513 350.71778,278.274365 350.79523,278.329119 L350.794237,278.335092 L350.80218,278.333101 C350.816081,278.343056 350.827004,278.350025 350.842891,278.360976 C350.547988,278.279343 350.234218,278.210652 349.908534,278.156894 C350.211381,278.140966 350.531108,278.122051 350.887573,278.052364 C349.581857,277.796516 351.916259,277.472972 350.104143,277.562568 C350.776364,277.382379 350.443729,277.050871 351.565751,277.031956 C352.123784,277.500846 351.204321,277.675062 350.901474,278.101145 Z M341.817162,275.865107 C341.87376,275.903932 341.870781,275.933798 341.874753,275.965655 C341.99192,275.913888 342.037595,275.879044 341.817162,275.865107 Z M342.561371,276.131508 C343.04394,276.514783 343.22962,276.791538 343.43913,277.179791 C343.56722,277.121055 342.633856,276.577501 341.904045,276.423196 L341.774962,276.480936 C340.967702,276.264908 341.615099,276.076755 341.874256,275.965256 C341.893122,276.10662 341.518784,276.180289 341.88915,276.312693 C342.317108,276.359482 342.428317,276.190244 342.561371,276.131508 Z M346.784744,277.007466 C346.892974,276.836237 346.710273,276.560478 347.568173,276.655052 L347.531435,276.433051 L348.296992,276.811349 L346.784744,277.007466 Z M355.021184,278.42001 L355.69539,278.238825 L354.816638,278.870981 L355.021184,278.42001 Z M356.984723,278.384072 L357.429561,278.54435 L356.908267,278.777302 L356.984723,278.384072 Z M467.814442,274.521553 L468.25928,274.414037 C468.048776,274.445893 467.913736,274.482728 467.814442,274.521553 Z M464.60089,274.464211 L464.519469,274.657342 C464.669403,274.552812 464.731958,274.474166 464.60089,274.464211 Z M405.201013,278.785565 C405.493931,278.881135 405.840467,278.931906 406.292255,278.859233 L406.486871,279.29328 C406.561342,279.737282 405.843446,279.159881 405.201013,278.785565 Z M438.245373,276.512593 C438.020969,276.612145 437.807487,276.704729 437.616842,276.788352 C437.751882,276.662917 437.89983,276.526531 438.057708,276.379194 C438.121256,276.423992 438.184804,276.469786 438.245373,276.512593 Z M438.718013,274.729617 L439.56797,275.016327 C439.377325,274.916775 439.104267,274.8222 438.718013,274.729617 Z M485.370224,274.225983 L485.89251,273.790941 C485.081278,273.785963 485.436751,274.009955 485.370224,274.225983 Z M377.093255,278.411249 C377.650295,278.58447 378.093146,278.660129 378.483372,278.684022 C377.813137,278.430164 377.27397,278.052862 377.093255,278.411249 Z M380.094318,278.698059 C379.545222,278.992733 378.97726,278.874266 378.482776,278.684121 C378.981232,278.716974 379.391316,278.66222 379.800408,278.593529 C379.900695,278.631359 379.996017,278.65326 380.094318,278.698059 Z M549.022169,275.172922 C549.067844,275.192832 549.124441,275.201792 549.166145,275.225684 C549.180046,275.166949 549.116498,275.162967 549.022169,275.172922 Z M568.125646,279.261921 C567.884362,279.370433 567.476263,279.486909 567.11384,279.554604 C567.298527,279.544649 567.600381,279.500846 568.125646,279.261921 Z M364.882174,278.645595 C364.815647,278.692384 364.466132,278.669487 364.882174,278.645595 Z M362.873058,276.918965 C362.962423,276.870184 363.029943,276.810453 363.040865,276.709905 C363.006112,276.814435 362.947529,276.879144 362.873058,276.918965 Z M384.266852,276.047885 C384.278767,276.04888 384.288697,276.04888 384.302598,276.049876 C384.179473,275.964261 384.201318,275.981185 384.266852,276.047885 Z M364.257714,278.443405 C364.413605,278.498158 364.593327,278.543952 364.788937,278.576804 C364.703544,278.542957 364.541695,278.499154 364.257714,278.443405 Z M364.340128,278.648482 C364.196151,278.629567 364.083949,278.616625 363.976711,278.602688 C363.923093,278.674365 363.968768,278.720159 364.340128,278.648482 Z M365.462547,278.627078 C365.176581,278.636038 365.004802,278.642011 364.88267,278.645993 C364.904515,278.63106 364.870755,278.606172 364.788341,278.576307 C365.002816,278.609159 365.224242,278.632056 365.462547,278.627078 Z M514.904937,276.012942 C514.931746,276.026879 514.964513,276.034843 514.993308,276.054754 C515.415308,275.878547 515.230621,275.906421 514.904937,276.012942 Z M416.078774,274.400996 L416.092676,274.436834 C416.074803,274.432852 416.050972,274.425884 416.031113,274.421901 C416.048986,274.416924 416.058916,274.404978 416.078774,274.400996 Z M417.57732,274.092782 L416.575443,275.687606 L416.091881,274.437232 C416.573457,274.555699 416.93588,274.62439 417.57732,274.092782 Z M438.654564,274.935689 C438.739957,275.018318 438.762795,275.107914 438.781661,275.198507 C438.902799,275.118865 438.905778,275.025286 438.654564,274.935689 Z M360.570529,278.822499 C360.852524,278.816526 360.681738,278.65326 360.662872,278.540767 C360.882312,278.619413 361.037211,278.724938 361.474105,278.706023 L360.570529,278.822499 Z M352.76572,275.777601 C353.345597,275.878148 352.9514,276.054355 352.389395,276.063315 L352.355635,275.839323 C352.485711,275.781583 352.633659,275.836336 352.76572,275.777601 Z M359.749764,277.218417 C359.682244,276.814236 359.114283,276.94664 358.48178,277.015331 C358.520504,277.014335 358.55625,277.010353 358.593982,277.016327 C358.402344,277.579791 359.077544,277.399602 359.749764,277.218417 Z M358.33542,277.026879 C358.140804,277.044798 357.941223,277.052763 357.751571,277.031857 C357.675115,277.25784 357.986898,277.081633 358.33542,277.026879 Z M366.253822,278.32673 C365.954947,278.220209 366.061191,278.841414 365.892391,278.675162 C365.552806,279.185864 367.897138,278.070881 366.253822,278.32673 Z M359.250315,275.882628 L359.830193,275.986162 L359.472734,276.38437 L359.250315,275.882628 Z M364.237855,276.295769 C364.259699,276.443106 363.578542,276.337581 362.956962,276.315679 C363.114839,276.278845 363.243921,276.232056 363.229027,276.148432 L364.237855,276.295769 Z M362.956862,276.315281 C362.633164,276.302339 362.324359,276.310304 362.143644,276.390941 C362.318402,276.386959 362.695719,276.374017 362.956862,276.315281 Z M360.632588,275.746541 L361.643401,275.895869 L360.93047,275.853061 L360.632588,275.746541 Z M375.093771,276.492185 C374.926957,276.324938 375.336048,276.263216 375.601164,276.145744 C376.012241,276.082031 376.311116,276.189547 376.196928,276.358785 L375.093771,276.492185 Z M371.773081,275.095172 L372.294374,274.861224 L372.25565,275.479443 C372.088836,275.313191 372.06997,275.201692 371.773081,275.095172 Z M374.988519,274.980388 C375.099729,274.810154 376.593111,274.503534 375.195051,274.529418 C375.081856,274.698656 373.976713,274.83106 374.988519,274.980388 Z M391.590284,275.916675 L391.341055,276.936088 L391.309281,275.921653 L391.590284,275.916675 Z M406.250651,273.626182 C406.607116,274.297163 406.194053,274.149826 405.403673,274.394724 C405.719428,274.190642 404.448464,274.171727 404.757268,273.935789 C405.934896,274.249378 404.94692,273.371329 406.250651,273.626182 Z M405.403673,274.395222 C405.277569,274.434047 405.142529,274.481832 404.999546,274.545545 C405.228915,274.484818 405.337146,274.437033 405.403673,274.395222 Z M571.644527,276.296765 C571.653464,276.121553 571.625661,275.940368 571.614739,275.767148 C571.76368,275.515281 571.889784,275.242509 572,274.952812 C571.943402,275.422698 571.817299,275.876655 571.644527,276.296765 Z M570.730625,273.710801 C570.812046,273.514684 570.479411,273.126431 570.28976,273 C570.645232,273.085615 570.985811,273.222997 571.310502,273.42011 C571.114893,273.529617 570.92127,273.626182 570.730625,273.710801 Z M457.491338,273.309209 L458.144693,273.677551 C457.750495,273.648681 457.553893,273.633748 457.425804,273.46451 L457.491338,273.309209 Z M468.878179,273.898357 L469.044,274.470781 L468.68257,273.883425 L468.878179,273.898357 Z M479.438795,273.24221 C479.048569,273.214335 478.588838,273.340767 478.19762,273.310901 C479.048569,273.214335 479.538089,273.970931 479.438795,273.24221 Z" id="Combined-Shape" transform="translate(450.000000, 276.500000) rotate(-180.000000) translate(-450.000000, -276.500000) "></path>
        </g>
    </g>
</svg>